<?xml version="1.0" encoding="utf-8"?>
<!-- Generator: Adobe Illustrator 22.1.0, SVG Export Plug-In . SVG Version: 6.00 Build 0)  -->
<svg version="1.2" baseProfile="tiny" xmlns="http://www.w3.org/2000/svg" xmlns:xlink="http://www.w3.org/1999/xlink" x="0px"
	 y="0px" viewBox="0 0 169.0994 66.5" xml:space="preserve">
<g id="Layer_1">
</g>
<g id="Warstwa_2">
	<path fill-rule="evenodd" fill="#0064A2" d="M39.8659,28.1133L39.8659,28.1133l-0.0001-6.8309h7.4374
		c4.0719,0,7.1045,0.8401,9.0901,2.5258c1.9856,1.6858,2.979,4.2719,2.979,7.744c0,3.3588-0.9663,5.9712-2.8923,7.8439
		c-1.926,1.866-4.6258,2.799-8.1038,2.799h-1.1129v7.6706h-7.3974V35.0309h0.0001V28.1133L39.8659,28.1133z M85.3306,64.1042
		c17.4588,0,33.3291-1.923,46.3816-5.1824c-0.8375-1.1314-1.33-2.5155-1.33-4.0102c0-0.1094,0.003-0.218,0.0081-0.3261
		c-13.0173,3.1225-29.331,4.9808-47.0391,4.9808c-12.7869,0-24.8458-0.9695-35.4635-2.6833
		c0.1213,0.406,0.1868,0.8361,0.1868,1.2815c0,1.0008-0.329,1.9247-0.8847,2.6699C58.5944,62.9217,71.5673,64.1042,85.3306,64.1042
		L85.3306,64.1042z M139.9938,27.0566c0.0711,0.1352,1.097,0.6088,1.3215,0.7043c0.233,0.0991,0.4771,0.2068,0.7242,0.2887
		c0.1247,0.0413,0.2558,0.0821,0.3767,0.1298c0.1172,0.0463,0.2835,0.0729,0.3849,0.1215c-0.0058-0.0215-0.3017-0.4126-0.3434-0.467
		c-0.1071-0.1397-0.2263-0.3358-0.3176-0.4928c-0.1269-0.2185-0.4859-0.8332-0.5401-1.0659
		c-0.164,0.0036-0.6858,0.2827-0.8519,0.3491c-0.1051,0.042-0.283,0.1432-0.3868,0.2065
		C140.2962,26.8706,140.0349,27.0456,139.9938,27.0566L139.9938,27.0566z M136.3761,22.166
		c0.0076,0.3413,0.2064,0.9783,0.3127,1.2501c0.1602,0.4102,0.3134,0.6761,0.517,1.0312c0.0888,0.1549,0.2108,0.3234,0.3176,0.4639
		c0.1125,0.1481,0.2473,0.288,0.352,0.4293c0.1004,0.1356,0.258,0.2826,0.3784,0.4029c0.0708,0.0708,0.365,0.3289,0.3943,0.3726
		c0.1544-0.0817,0.3595-0.2841,0.5442-0.3964c0.1984-0.1207,0.3726-0.2503,0.5845-0.356c0.2021-0.1008,0.4078-0.224,0.6281-0.3126
		c0.203-0.0817,0.4717-0.1759,0.6599-0.2662c-0.0106-0.1265-0.0981-0.4376-0.1359-0.5732
		c-0.0502-0.1798-0.0588-0.4242-0.1082-0.5863c-0.0533-0.1751-0.1467-1.0312-0.1467-1.2569v-0.246l-3.8781-0.0434h-0.4197V22.166
		L136.3761,22.166z M146.0136,25.4794c-0.6578,0-1.4865,0.0916-2.0709,0.1865c-0.1584,0.0258-0.3332,0.0594-0.4793,0.0851
		c-0.0912,0.0161-0.1613,0.0268-0.2427,0.0467c-0.129,0.0316-0.1318-0.0013-0.0724,0.1157
		c0.1317,0.2592,0.2465,0.4859,0.3965,0.7322c0.2856,0.4688,0.6252,0.8792,1.0105,1.2468c0.1623,0.1549,0.4425,0.37,0.6432,0.4855
		c0.1339,0.0771,0.6068,0.3388,0.7717,0.3425L146.0136,25.4794L146.0136,25.4794z M147.533,28.706
		c0.2057-0.0045,0.7872-0.3612,0.9406-0.463c0.2749-0.1824,0.5094-0.4169,0.7416-0.6474c0.4547-0.4515,0.8121-1.0616,1.1251-1.6531
		c-0.0726-0.006-0.5391-0.1168-0.6243-0.1427c-0.1867-0.0569-0.4366-0.0753-0.6358-0.1166
		c-0.3112-0.0645-1.0174-0.1603-1.3591-0.1603h-0.1447L147.533,28.706L147.533,28.706z M150.6877,28.2864
		c0.3449-0.0803,1.0423-0.3342,1.3406-0.4825c0.2101-0.1044,0.4131-0.1845,0.6225-0.2892c0.121-0.0605,0.5182-0.292,0.5982-0.3134
		c-0.0963-0.1313-1.1961-0.7152-1.4181-0.7669c-0.0446,0.1915-0.4108,0.8023-0.5241,0.9808
		c-0.1011,0.1593-0.1955,0.3019-0.3005,0.4518C150.9065,28.0092,150.7809,28.1471,150.6877,28.2864L150.6877,28.2864z
		 M150.9191,24.4666c0.01-0.1189,0.1196-0.3939,0.1415-0.5241c0.0272-0.1626,0.0715-0.3762,0.1132-0.5378
		c0.0657-0.2538,0.136-0.8636,0.136-1.1662l-3.69-0.0329l-0.0181,1.4074l0.0036,0.3328c0.5693,0,1.2044,0.1283,1.7361,0.1885
		c0.2148,0.0243,0.5962,0.1045,0.7991,0.1559C150.2559,24.3194,150.854,24.4666,150.9191,24.4666L150.9191,24.4666z
		 M142.5696,24.3364c0.1795-0.004,0.583-0.1322,0.8089-0.1607c0.2638-0.0333,0.5656-0.0844,0.8408-0.1287
		c0.5021-0.0809,1.2439-0.1302,1.8089-0.1302l0.0263-1.7364l-3.8176-0.0433C142.2368,22.9013,142.4228,23.7063,142.5696,24.3364
		L142.5696,24.3364z M154.5947,26.2463c0.3889-0.2604,1.2245-1.2243,1.4714-1.6541c0.1858-0.3234,0.3971-0.66,0.5276-1.035
		c0.0593-0.1704,0.1533-0.4015,0.1873-0.5941c0.0303-0.1725,0.1247-0.4567,0.129-0.6523l-3.415-0.0476l-0.6078,0.0041
		c0,0.506-0.1165,0.9631-0.1753,1.4164c-0.0233,0.1803-0.0882,0.4769-0.1373,0.6584c-0.0381,0.1405-0.1554,0.5155-0.165,0.6309
		c0.1798,0.0952,0.4056,0.1738,0.5982,0.27c0.1994,0.0997,0.382,0.1864,0.5681,0.3002c0.1829,0.1117,0.3655,0.2099,0.5308,0.3374
		C154.212,25.962,154.5047,26.1986,154.5947,26.2463L154.5947,26.2463z M152.5399,18.4185
		c0.0102,0.1227,0.0826,0.4053,0.1157,0.5355c0.0438,0.1726,0.069,0.3601,0.1106,0.5405c0.0588,0.2543,0.121,0.9044,0.121,1.196
		l3.9649,0.0431c0-0.2587-0.2393-0.8769-0.327-1.091c-0.1306-0.319-0.3079-0.659-0.4891-0.9289
		c-0.1861-0.2771-0.3883-0.5706-0.6132-0.8049c-0.194-0.202-0.4919-0.5725-0.7123-0.7202
		c-0.1571,0.1052-0.3092,0.2448-0.4804,0.3588c-0.1727,0.1151-0.3413,0.2232-0.5276,0.3262
		c-0.1721,0.0951-0.3842,0.2125-0.5646,0.2891C152.9626,18.2371,152.6961,18.3358,152.5399,18.4185L152.5399,18.4185z
		 M150.6732,20.6612h0.6367v-0.1158c0-0.503-0.1747-1.2193-0.275-1.6495c-0.1951,0.0163-0.5574,0.1203-0.7897,0.1654
		c-0.2636,0.0511-0.5584,0.1144-0.8306,0.1389c-0.5636,0.0509-1.1498,0.1588-1.7658,0.1588v1.2733l0.2171-0.0027L150.6732,20.6612
		L150.6732,20.6612z M142.2802,20.502v0.0695l3.8058,0.0319v-1.2588c-0.6516,0-1.2428-0.1042-1.8247-0.1723
		c-0.2718-0.0318-0.5962-0.0867-0.8492-0.1492c-0.1313-0.0325-0.28-0.0511-0.4146-0.0919
		c-0.0677-0.0206-0.3593-0.0918-0.4134-0.0931c-0.0076,0.0908-0.0753,0.2983-0.0982,0.3938
		c-0.0323,0.1347-0.0462,0.2755-0.0813,0.4107C142.3566,19.8281,142.2802,20.2923,142.2802,20.502L142.2802,20.502z
		 M136.4485,20.502l4.2544,0.0434v-0.0578c0-0.303,0.1025-0.8134,0.1536-1.1052c0.0654-0.3734,0.1571-0.6923,0.2371-1.0362
		c-0.2619-0.061-1.0351-0.4693-1.2732-0.608c-0.1884-0.1097-0.396-0.2383-0.5733-0.3673c-0.1787-0.13-0.3607-0.3027-0.5268-0.4138
		c-0.2357,0.1578-0.5334,0.4979-0.7415,0.7054c-0.222,0.2214-0.473,0.5447-0.6505,0.811c-0.1757,0.2635-0.3998,0.6175-0.5201,0.927
		C136.7222,19.6223,136.4544,20.2373,136.4485,20.502L136.4485,20.502z M152.0334,16.9282c0.059,0,0.6265-0.2771,0.7091-0.3183
		c0.1219-0.061,0.5953-0.3613,0.6511-0.3762c-0.0382-0.143-2.1353-1.1361-2.4455-1.1431c0.1931,0.2883,0.4147,0.5557,0.5836,0.8779
		c0.0835,0.1592,0.1741,0.3045,0.2557,0.4677C151.8124,16.4862,152.0123,16.9282,152.0334,16.9282L152.0334,16.9282z
		 M147.6735,17.7818c0.4513,0.0001,1.091-0.0592,1.4839-0.1266c0.2365-0.0406,0.4598-0.0724,0.6879-0.1079
		c0.1798-0.028,0.5078-0.1282,0.6687-0.1417c-0.0455-0.1953-0.3845-0.7293-0.4916-0.9119
		c-0.1349-0.2301-0.4274-0.6235-0.6117-0.8064c-0.2547-0.2529-0.4492-0.4596-0.7491-0.6689
		c-0.1584-0.1106-0.7285-0.4601-0.9427-0.4778L147.6735,17.7818L147.6735,17.7818z M143.1484,17.3623
		c0.4564,0.1063,0.931,0.1996,1.4181,0.275c0.4224,0.0653,1.0931,0.1446,1.5473,0.1446l0.03-3.2411v-0.0579
		c-0.2423,0.0202-0.8306,0.334-1.0103,0.4512c-0.309,0.2019-0.5522,0.4126-0.8018,0.6741
		c-0.2504,0.2624-0.4501,0.4951-0.6566,0.8049C143.5816,16.5533,143.1605,17.2173,143.1484,17.3623L143.1484,17.3623z
		 M140.0662,16.0166c0.0928,0.1385,1.3525,0.835,1.5773,0.8537c0.0467-0.2002,0.4425-0.8774,0.5616-1.0589
		c0.1084-0.165,0.206-0.3301,0.325-0.4853c0.0481-0.0627,0.3498-0.4369,0.3579-0.4669c-0.0342,0.0164-0.3351,0.1058-0.377,0.115
		c-0.1346,0.0295-0.2472,0.0761-0.3737,0.1183c-0.2494,0.0831-0.4864,0.1704-0.7299,0.2685
		C140.9249,15.5554,140.5033,15.7854,140.0662,16.0166L140.0662,16.0166z M137.5681,49.5584c3.0704,0,5.5601,2.3972,5.5601,5.3531
		c0,2.956-2.4898,5.3533-5.5601,5.3533c-3.0703,0-5.5601-2.3973-5.5601-5.3533C132.0081,51.9556,134.4978,49.5584,137.5681,49.5584
		L137.5681,49.5584z M144.7537,54.8722c-0.0091-1.5776-0.567-3.0301-1.499-4.1899c10.7528-4.1216,17.2005-9.3731,17.2005-15.0927
		c0-2.9161-1.6775-5.7103-4.7448-8.2954c1.4808-1.2354,2.4801-2.7821,2.7864-4.4921c6.5543,3.3928,9.8852,7.4792,9.1924,12.5143
		C166.6561,42.8242,158.2215,49.715,144.7537,54.8722L144.7537,54.8722z M137.4511,16.0397
		c-0.6853,0.591-1.2616,1.2505-1.7078,1.9626c-4.8036-1.3844-10.1743-2.5816-15.9931-3.5526
		C125.809,14.4852,131.7183,14.9909,137.4511,16.0397L137.4511,16.0397z M43.6033,61.0994c1.6206,0,2.935-1.3143,2.935-2.935
		c0-1.6206-1.3143-2.9348-2.935-2.9348c-1.6205,0-2.9348,1.3142-2.9348,2.9348C40.6685,59.7851,41.9828,61.0994,43.6033,61.0994
		L43.6033,61.0994z M40.0647,55.432C19.6562,51.1181,6.2472,43.8401,6.2472,35.5896c0-2.9366,1.7018-5.7498,4.8104-8.3502
		c-1.0825-0.7021-1.8851-1.7735-2.2131-3.0263c-3.7301,3.188-5.8724,6.8446-5.8724,11.1034
		c0,9.9293,14.3891,18.6862,36.2755,23.8611c-0.0755-0.3255-0.1153-0.6646-0.1153-1.013
		C39.1322,57.1354,39.4803,56.1877,40.0647,55.432L40.0647,55.432z M99.1242,3.4242c2.6259,0,4.7557,2.0504,4.7557,4.5787
		c0,2.5283-2.1298,4.5787-4.7557,4.5787c-2.626,0-4.7557-2.0504-4.7557-4.5787C94.3685,5.4746,96.4983,3.4242,99.1242,3.4242
		L99.1242,3.4242z M14.056,19.3388c2.0682,0,3.7456,1.6148,3.7456,3.606c0,1.9912-1.6774,3.6061-3.7456,3.6061
		c-2.0683,0-3.7456-1.6149-3.7456-3.6061C10.3105,20.9536,11.9878,19.3388,14.056,19.3388L14.056,19.3388z M19.3755,22.2047
		c13.8521-6.3889,37.3384-10.5918,63.9758-10.5918c3.6824,0,7.3044,0.0803,10.849,0.2358c-0.8858-1.0499-1.417-2.3882-1.417-3.8458
		c0-1.5329,0.5872-2.9339,1.5567-4.0062C76.4582,4.5331,55.7226,6.8522,38.1413,11.555
		c-7.8837,2.1088-15.0309,4.4902-20.7926,7.3007C18.4236,19.6593,19.1733,20.847,19.3755,22.2047L19.3755,22.2047z
		 M103.4794,12.4392c5.6885,0.4776,11.1167,1.1525,16.2045,1.9996l11.9248-7.9102c-5.5975-1.6221-15.6513-2.5831-27.8115-2.6514
		c1.0355,1.0866,1.6678,2.5351,1.6678,4.1257C105.4651,9.7503,104.702,11.3263,103.4794,12.4392L103.4794,12.4392z M47.2632,35.0309
		h0.4399h0.4398c1.2129,0,2.153-0.3003,2.8257-0.8996c0.6728-0.5995,1.0063-1.4329,1.0063-2.4991
		c0-1.1329-0.3331-2.006-0.9996-2.6124c-0.6598-0.6065-1.6201-0.9064-2.8723-0.9064h-0.3998h-0.4399V35.0309L47.2632,35.0309z
		 M79.5158,50.3121c-0.6372,0-1.6208,0-2.2907,0c-4.5051,0-8.1505-1.3062-10.9361-3.9986
		c-2.7857-2.699-4.1785-6.2044-4.1785-10.5229c0-4.3385,1.4461-7.9172,4.3318-10.7496c2.8924-2.8323,6.5617-4.2052,11.0268-4.2052
		c0.6178,0,1.398,0,2.056,0l-0.009,7.9639c-0.6344,0-1.7692,0-2.1177,0c-2.2392,0-4.0653,0.6331-5.4781,1.8926
		c-1.4128,1.2663-2.1192,2.8724-2.1192,4.825c0,1.9393,0.6997,3.5588,2.0992,4.8716c1.3995,1.3062,3.1456,1.9594,5.2448,1.9594
		c0.4651,0,1.3743,0,2.3706,0v7.8509L79.5158,50.3121L79.5158,50.3121z M86.36,50.3121v-7.9638c1.358,0,1.9738,0,3.0455,0
		c0.8273,0,1.6003,0.0627,2.0126-0.1999c0.5198-0.4265,0.7797-0.9597,0.7797-1.5994c0-0.8464-0.7064-1.9194-2.1259-3.2189
		c-0.4865-0.4399-0.8531-0.793-1.113-1.0529c-1.0063-1.0196-1.746-2.066-2.2325-3.1456c-0.4798-1.0796-0.7198-2.2458-0.7198-3.4921
		c0-2.5657,0.8997-4.6716,2.6924-6.3244c1.7994-1.6527,4.1253-2.4791,6.9709-2.4791c0.9994,0,2.478-0.1174,3.7509,0v7.9639
		c-1.5317-0.0001-1.3697,0-2.9015,0c-1.5261,0-2.1162,0.3826-2.1078,1.2912c0.0075,0.8058,0.6786,1.6077,2.0448,2.6873
		c0.5465,0.4465,0.9663,0.7997,1.2662,1.0596c1.1063,0.9596,1.9527,2.066,2.5325,3.3188c0.5798,1.2463,0.8664,2.5792,0.8664,3.9986
		c0,2.8523-0.9463,5.0916-2.839,6.7177c-1.8993,1.626-4.525,2.4391-7.8838,2.4391C89.3478,50.2917,87.8197,50.3121,86.36,50.3121
		L86.36,50.3121z M106.5125,50.3121v-7.9638c1.3581,0,1.9739,0,3.0456,0c0.8273,0,1.6002,0.0627,2.0126-0.1999
		c0.5198-0.4265,0.7798-0.9597,0.7798-1.5994c0-0.8464-0.7064-1.9194-2.126-3.2189c-0.4865-0.4399-0.853-0.793-1.1129-1.0529
		c-1.0063-1.0196-1.7461-2.066-2.2325-3.1456c-0.4799-1.0796-0.7198-2.2458-0.7198-3.4921c0-2.5657,0.8996-4.6716,2.6924-6.3244
		c1.7993-1.6527,4.1252-2.4791,6.9708-2.4791c0.9994,0,2.478-0.1174,3.751,0l-0.0001,7.9639c-1.5317-0.0001-1.3697,0-2.9014,0
		c-1.5261,0-2.1162,0.3826-2.1078,1.2912c0.0075,0.8058,0.6786,1.6077,2.0448,2.6873c0.5465,0.4465,0.9663,0.7997,1.2662,1.0596
		c1.1063,0.9596,1.9527,2.066,2.5325,3.3188c0.5798,1.2463,0.8664,2.5792,0.8664,3.9986c0,2.8523-0.9463,5.0916-2.839,6.7177
		c-1.8994,1.626-4.5251,2.4391-7.8839,2.4391C109.5003,50.2917,107.9722,50.3121,106.5125,50.3121z"/>
</g>
</svg>
